solid walls
facet normal 0.000000 0.970143 0.242536
outer loop
vertex 0.050000 0.050000 0.250000
vertex -0.050000 0.050000 0.250000
vertex -0.025000 0.025000 0.350000
endloop
endfacet
facet normal 0.000000 0.970143 0.242536
outer loop
vertex 0.050000 0.050000 0.250000
vertex -0.025000 0.025000 0.350000
vertex 0.025000 0.025000 0.350000
endloop
endfacet
facet normal 0.000000 -1.000000 0.000000
outer loop
vertex 0.050000 -0.050000 -0.000000
vertex 0.050000 -0.050000 0.250000
vertex -0.050000 -0.050000 0.250000
endloop
endfacet
facet normal 0.000000 -1.000000 0.000000
outer loop
vertex 0.050000 -0.050000 -0.000000
vertex -0.050000 -0.050000 0.250000
vertex -0.050000 -0.050000 -0.000000
endloop
endfacet
facet normal -1.000000 0.000000 0.000000
outer loop
vertex -0.050000 -0.050000 -0.000000
vertex -0.050000 -0.050000 0.250000
vertex -0.050000 0.050000 0.250000
endloop
endfacet
facet normal -1.000000 0.000000 0.000000
outer loop
vertex -0.050000 -0.050000 -0.000000
vertex -0.050000 0.050000 0.250000
vertex -0.050000 0.050000 -0.000000
endloop
endfacet
facet normal 1.000000 0.000000 0.000000
outer loop
vertex 0.050000 0.050000 -0.000000
vertex 0.050000 0.050000 0.250000
vertex 0.050000 -0.050000 0.250000
endloop
endfacet
facet normal 1.000000 0.000000 0.000000
outer loop
vertex 0.050000 0.050000 -0.000000
vertex 0.050000 -0.050000 0.250000
vertex 0.050000 -0.050000 -0.000000
endloop
endfacet
facet normal 0.000000 1.000000 0.000000
outer loop
vertex -0.050000 0.050000 -0.000000
vertex -0.050000 0.050000 0.250000
vertex 0.050000 0.050000 0.250000
endloop
endfacet
facet normal 0.000000 1.000000 0.000000
outer loop
vertex -0.050000 0.050000 -0.000000
vertex 0.050000 0.050000 0.250000
vertex 0.050000 0.050000 -0.000000
endloop
endfacet
facet normal 0.000000 -1.000000 0.000000
outer loop
vertex -0.025000 -0.025000 0.350000
vertex 0.025000 -0.025000 0.350000
vertex 0.025000 -0.025000 0.450000
endloop
endfacet
facet normal 0.000000 -1.000000 0.000000
outer loop
vertex -0.025000 -0.025000 0.350000
vertex 0.025000 -0.025000 0.450000
vertex -0.025000 -0.025000 0.450000
endloop
endfacet
facet normal 0.000000 -0.970143 0.242536
outer loop
vertex -0.050000 -0.050000 0.250000
vertex 0.050000 -0.050000 0.250000
vertex 0.025000 -0.025000 0.350000
endloop
endfacet
facet normal 0.000000 -0.970143 0.242536
outer loop
vertex -0.050000 -0.050000 0.250000
vertex 0.025000 -0.025000 0.350000
vertex -0.025000 -0.025000 0.350000
endloop
endfacet
facet normal -0.970142 0.000000 0.242536
outer loop
vertex -0.050000 0.050000 0.250000
vertex -0.050000 -0.050000 0.250000
vertex -0.025000 -0.025000 0.350000
endloop
endfacet
facet normal -0.970142 0.000000 0.242536
outer loop
vertex -0.050000 0.050000 0.250000
vertex -0.025000 -0.025000 0.350000
vertex -0.025000 0.025000 0.350000
endloop
endfacet
facet normal 0.970142 0.000000 0.242536
outer loop
vertex 0.050000 -0.050000 0.250000
vertex 0.050000 0.050000 0.250000
vertex 0.025000 0.025000 0.350000
endloop
endfacet
facet normal 0.970142 0.000000 0.242536
outer loop
vertex 0.050000 -0.050000 0.250000
vertex 0.025000 0.025000 0.350000
vertex 0.025000 -0.025000 0.350000
endloop
endfacet
facet normal 0.000000 0.000000 -1.000000
outer loop
vertex 0.025000 0.025000 0.450000
vertex -0.025000 0.025000 0.450000
vertex -0.025000 0.050000 0.450000
endloop
endfacet
facet normal 0.000000 0.000000 -1.000000
outer loop
vertex 0.025000 0.025000 0.450000
vertex -0.025000 0.050000 0.450000
vertex 0.025000 0.050000 0.450000
endloop
endfacet
facet normal 0.000000 1.000000 0.000000
outer loop
vertex 0.025000 0.025000 0.350000
vertex -0.025000 0.025000 0.350000
vertex -0.025000 0.025000 0.450000
endloop
endfacet
facet normal 0.000000 1.000000 0.000000
outer loop
vertex 0.025000 0.025000 0.350000
vertex -0.025000 0.025000 0.450000
vertex 0.025000 0.025000 0.450000
endloop
endfacet
facet normal 1.000000 0.000000 0.000000
outer loop
vertex 0.025000 -0.025000 0.350000
vertex 0.025000 0.025000 0.350000
vertex 0.025000 0.025000 0.450000
endloop
endfacet
facet normal 1.000000 0.000000 0.000000
outer loop
vertex 0.025000 -0.025000 0.350000
vertex 0.025000 0.025000 0.450000
vertex 0.025000 -0.025000 0.450000
endloop
endfacet
facet normal -1.000000 0.000000 0.000000
outer loop
vertex -0.025000 0.025000 0.350000
vertex -0.025000 -0.025000 0.350000
vertex -0.025000 -0.025000 0.450000
endloop
endfacet
facet normal -1.000000 0.000000 0.000000
outer loop
vertex -0.025000 0.025000 0.350000
vertex -0.025000 -0.025000 0.450000
vertex -0.025000 0.025000 0.450000
endloop
endfacet
facet normal 1.000000 0.000000 0.000000
outer loop
vertex 0.025000 -0.025000 0.450000
vertex 0.025000 0.025000 0.450000
vertex 0.025000 0.025000 0.950000
endloop
endfacet
facet normal 1.000000 0.000000 0.000000
outer loop
vertex 0.025000 -0.025000 0.450000
vertex 0.025000 0.025000 0.950000
vertex 0.025000 -0.025000 0.950000
endloop
endfacet
facet normal -1.000000 0.000000 0.000000
outer loop
vertex -0.025000 0.025000 0.450000
vertex -0.025000 -0.025000 0.450000
vertex -0.025000 -0.025000 0.950000
endloop
endfacet
facet normal -1.000000 0.000000 0.000000
outer loop
vertex -0.025000 0.025000 0.450000
vertex -0.025000 -0.025000 0.950000
vertex -0.025000 0.025000 0.950000
endloop
endfacet
facet normal 0.000000 -1.000000 0.000000
outer loop
vertex -0.025000 -0.025000 0.450000
vertex 0.025000 -0.025000 0.450000
vertex 0.025000 -0.025000 0.950000
endloop
endfacet
facet normal 0.000000 -1.000000 0.000000
outer loop
vertex -0.025000 -0.025000 0.450000
vertex 0.025000 -0.025000 0.950000
vertex -0.025000 -0.025000 0.950000
endloop
endfacet
facet normal 0.000000 1.000000 0.000000
outer loop
vertex 0.025000 0.050000 0.450000
vertex -0.025000 0.050000 0.450000
vertex -0.025000 0.050000 0.950000
endloop
endfacet
facet normal 0.000000 1.000000 0.000000
outer loop
vertex 0.025000 0.050000 0.450000
vertex -0.025000 0.050000 0.950000
vertex 0.025000 0.050000 0.950000
endloop
endfacet
facet normal -1.000000 0.000000 0.000000
outer loop
vertex -0.025000 0.025000 0.450000
vertex -0.025000 0.025000 0.950000
vertex -0.025000 0.050000 0.950000
endloop
endfacet
facet normal -1.000000 0.000000 0.000000
outer loop
vertex -0.025000 0.025000 0.450000
vertex -0.025000 0.050000 0.950000
vertex -0.025000 0.050000 0.450000
endloop
endfacet
facet normal 1.000000 0.000000 0.000000
outer loop
vertex 0.025000 0.025000 0.950000
vertex 0.025000 0.025000 0.450000
vertex 0.025000 0.050000 0.450000
endloop
endfacet
facet normal 1.000000 0.000000 0.000000
outer loop
vertex 0.025000 0.025000 0.950000
vertex 0.025000 0.050000 0.450000
vertex 0.025000 0.050000 0.950000
endloop
endfacet
endsolid walls 
